<?xml version="1.0" encoding="UTF-8"?>
<svg id="_レイヤー_2" data-name="レイヤー_2" xmlns="http://www.w3.org/2000/svg" viewBox="0 0 611.66 577.4">
  <defs>
    <style>
      .cls-1 {
        fill: #e65100;
        font-family: VDL-LogoJrBlack-Black-83pv-RKSJ-H, VDL-LogoJrBlack;
        font-size: 72px;
        font-weight: 800;
      }
    </style>
  </defs>
  <g id="_レイヤー_1-2" data-name="レイヤー_1">
    <text class="cls-1" transform="translate(60.74 307.12) rotate(-81.93)"><tspan x="0" y="0">プ</tspan></text>
    <text class="cls-1" transform="translate(69.97 238.81) rotate(-65.67)"><tspan x="0" y="0">ロ</tspan></text>
    <text class="cls-1" transform="translate(98.01 175.81) rotate(-49.5)"><tspan x="0" y="0">テ</tspan></text>
    <text class="cls-1" transform="translate(142.48 123.07) rotate(-33.4)"><tspan x="0" y="0">イ</tspan></text>
    <text class="cls-1" transform="translate(199.79 84.74) rotate(-17.17)"><tspan x="0" y="0">ン</tspan></text>
    <text class="cls-1" transform="translate(265.64 64) rotate(-.98)"><tspan x="0" y="0">ス</tspan></text>
    <text class="cls-1" transform="translate(334.54 62.34) rotate(15.13)"><tspan x="0" y="0">タ</tspan></text>
    <text class="cls-1" transform="translate(401.18 79.92) rotate(31.38)"><tspan x="0" y="0">ン</tspan></text>
    <text class="cls-1" transform="translate(460.29 115.48) rotate(47.49)"><tspan x="0" y="0">ド</tspan></text>
    <text class="cls-1" transform="translate(507.23 166.03) rotate(63.63)"><tspan x="0" y="0">　</tspan></text>
    <text class="cls-1" transform="translate(538.24 227.61) rotate(79.91)"><tspan x="0" y="0">グ</tspan></text>
    <text class="cls-1" transform="translate(550.72 295.44) rotate(95.95)"><tspan x="0" y="0">リ</tspan></text>
    <text class="cls-1" transform="translate(544.01 364.09) rotate(112.21)"><tspan x="0" y="0">フ</tspan></text>
    <text class="cls-1" transform="translate(518.33 428.08) rotate(128.4)"><tspan x="0" y="0">ォ</tspan></text>
    <text class="cls-1" transform="translate(475.84 482.39) rotate(144.49)"><tspan x="0" y="0">ン</tspan></text>
  </g>
</svg>